<svg width="100" height="50" viewBox="0 0 100 50" fill="none" xmlns="http://www.w3.org/2000/svg">
<g filter="url(#filter0_d_2_224)">
<path d="M20 40C25.5228 40 30 35.5228 30 30C30 24.4772 25.5228 20 20 20C14.4772 20 10 24.4772 10 30C10 35.5228 14.4772 40 20 40Z" fill="white"/>
<path d="M40 40C46.6274 40 52 34.6274 52 28C52 21.3726 46.6274 16 40 16C33.3726 16 28 21.3726 28 28C28 34.6274 33.3726 40 40 40Z" fill="white"/>
<path d="M60 40C68.2843 40 75 33.2843 75 25C75 16.7157 68.2843 10 60 10C51.7157 10 45 16.7157 45 25C45 33.2843 51.7157 40 60 40Z" fill="white"/>
<path d="M80 40C84.4183 40 88 36.4183 88 32C88 27.5817 84.4183 24 80 24C75.5817 24 72 27.5817 72 32C72 36.4183 75.5817 40 80 40Z" fill="white"/>
<path d="M80 25H20V40H80V25Z" fill="white"/>
</g>
<defs>
<filter id="filter0_d_2_224" x="8" y="9" width="82" height="34" filterUnits="userSpaceOnUse" color-interpolation-filters="sRGB">
<feFlood flood-opacity="0" result="BackgroundImageFix"/>
<feColorMatrix in="SourceAlpha" type="matrix" values="0 0 0 0 0 0 0 0 0 0 0 0 0 0 0 0 0 0 127 0" result="hardAlpha"/>
<feOffset dy="1"/>
<feGaussianBlur stdDeviation="1"/>
<feComposite in2="hardAlpha" operator="out"/>
<feColorMatrix type="matrix" values="0 0 0 0 0 0 0 0 0 0 0 0 0 0 0 0 0 0 0.25 0"/>
<feBlend mode="normal" in2="BackgroundImageFix" result="effect1_dropShadow_2_224"/>
<feBlend mode="normal" in="SourceGraphic" in2="effect1_dropShadow_2_224" result="shape"/>
</filter>
</defs>
</svg>
