<svg width="100" height="92" viewBox="0 0 100 92" fill="none" xmlns="http://www.w3.org/2000/svg">
<g clip-path="url(#clip0_21_13)">
<path d="M10 82C36.6667 62 63.3333 62 90 82H10Z" fill="#166534"/>
<path d="M0 92L10 82C36.6667 62 63.3333 62 90 82L100 92H0Z" fill="#15803D"/>
<path d="M65 57H35V82H65V57Z" fill="#7F1D1D"/>
<path d="M62 37H38V57H62V37Z" fill="#991B1B"/>
<path d="M60 22H40V37H60V22Z" fill="#B91C1C"/>
<path d="M44 17H39V22H44V17Z" fill="#991B1B"/>
<path d="M52.5 17H47.5V22H52.5V17Z" fill="#991B1B"/>
<path d="M61 17H56V22H61V17Z" fill="#991B1B"/>
<path d="M46 44C48.6667 41.3333 51.3333 41.3333 54 44V52H46V44Z" fill="#262626"/>
<path d="M45 22V0" stroke="#A3A3A3" stroke-width="1.5"/>
<path d="M57.5 1H45.5V4H57.5V1Z" fill="#FACC15"/>
<path d="M57.5 4H45.5V7H57.5V4Z" fill="#15803D"/>
<path d="M57.5 7H45.5V10H57.5V7Z" fill="#DC2626"/>
</g>
<defs>
<clipPath id="clip0_21_13">
<rect width="100" height="92" fill="white"/>
</clipPath>
</defs>
</svg>
