<svg viewBox="0 0 100 100" xmlns="http://www.w3.org/2000/svg" class="w-full h-full drop-shadow-lg">
  <path d="M 10 90 Q 50 60 90 90 Z" fill="#166534"/>
  <path d="M 0 100 L 10 90 Q 50 60 90 90 L 100 100 Z" fill="#15803d"/>
  
  <rect x="35" y="65" width="30" height="25" fill="#7f1d1d"/>
  <rect x="38" y="45" width="24" height="20" fill="#991b1b"/>
  <rect x="40" y="30" width="20" height="15" fill="#b91c1c"/>
  
  <rect x="39" y="25" width="5" height="5" fill="#991b1b"/>
  <rect x="47.5" y="25" width="5" height="5" fill="#991b1b"/>
  <rect x="56" y="25" width="5" height="5" fill="#991b1b"/>
  
  <path d="M 46 52 Q 50 48 54 52 L 54 60 L 46 60 Z" fill="#262626"/>
  
  <line x1="45" y1="30" x2="45" y2="8" stroke="#a3a3a3" stroke-width="1.5"/>
  <rect x="45.5" y="9" width="12" height="3" fill="#facc15"/> <rect x="45.5" y="12" width="12" height="3" fill="#15803d"/> <rect x="45.5" y="15" width="12" height="3" fill="#dc2626"/> </svg>