<svg width="100" height="178" viewBox="0 0 100 178" fill="none" xmlns="http://www.w3.org/2000/svg">
<path d="M85 158H15V178H85V158Z" fill="#334155"/>
<path d="M64 8H36C35.4477 8 35 8.44772 35 9V157C35 157.552 35.4477 158 36 158H64C64.5523 158 65 157.552 65 157V9C65 8.44772 64.5523 8 64 8Z" fill="#CBD5E1"/>
<path d="M44 8H36C35.4477 8 35 8.44772 35 9V157C35 157.552 35.4477 158 36 158H44C44.5523 158 45 157.552 45 157V9C45 8.44772 44.5523 8 44 8Z" fill="#94A3B8"/>
<path d="M35 8C45 -2 55 -2 65 8H35Z" fill="#94A3B8"/>
<path d="M40 13V153" stroke="#475569" stroke-width="1.5"/>
<path d="M45 10V153" stroke="#64748B" stroke-width="1.5"/>
<path d="M50 6V153" stroke="#64748B" stroke-width="1.5"/>
<path d="M55 10V153" stroke="#64748B" stroke-width="1.5"/>
<path d="M60 13V153" stroke="#64748B" stroke-width="1.5"/>
<g opacity="0.5">
<path d="M35 38H65ZM35 68H65ZM35 98H65ZM35 128H65Z" fill="black"/>
<path d="M35 38H65M35 68H65M35 98H65M35 128H65" stroke="#F8FAFC" stroke-width="0.5"/>
</g>
</svg>
