<svg width="31" height="41" viewBox="0 0 31 41" fill="none" xmlns="http://www.w3.org/2000/svg">
<rect y="9" width="31" height="2" rx="1" fill="black"/>
<path d="M10 9H21V23H10V9Z" fill="#A92525"/>
<path d="M10 23H21V27H10V23Z" fill="#7F72F0"/>
<path d="M10 27H15V40C15 40.5523 14.5523 41 14 41H11C10.4477 41 10 40.5523 10 40V27Z" fill="#7F72F0"/>
<path d="M16 27H21V40C21 40.5523 20.5523 41 20 41H17C16.4477 41 16 40.5523 16 40V27Z" fill="#7F72F0"/>
<path d="M21 9H22C23.1046 9 24 9.89543 24 11V18C24 18.5523 23.5523 19 23 19H22C21.4477 19 21 18.5523 21 18V9Z" fill="#FDDFCB"/>
<path d="M25.2345 8.89834C25.4771 8.4022 26.076 8.19669 26.5722 8.43931L27.4705 8.87862C27.9666 9.12124 28.1722 9.72012 27.9295 10.2163L24.1343 17.977C23.8917 18.4731 23.2928 18.6786 22.7967 18.436L21 17.5574L25.2345 8.89834Z" fill="#FDDFCB"/>
<path d="M6.13432 8.89834C5.89169 8.4022 5.29281 8.19669 4.79667 8.43931L3.89833 8.87862C3.4022 9.12124 3.19668 9.72012 3.43931 10.2163L7.6738 18.8753L10.3688 17.5574L6.13432 8.89834Z" fill="#FDDFCB"/>
<path d="M7 11C7 9.89543 7.89543 9 9 9H10V18C10 18.5523 9.55228 19 9 19H8C7.44772 19 7 18.5523 7 18V11Z" fill="#FDDFCB"/>
<rect x="10" y="23" width="11" height="2" fill="black"/>
<ellipse cx="20.5" cy="12" rx="1.5" ry="3" fill="#FDE0CB"/>
<ellipse cx="10.5" cy="12" rx="1.5" ry="3" fill="#FDE0CB"/>
<rect x="13" y="7" width="5" height="2" fill="#FDDFCB"/>
<circle cx="15.5" cy="4.5" r="4.5" fill="#DD9907"/>
<rect x="20" y="9" width="2" height="1" fill="#FDDFCB"/>
<rect x="9" y="9" width="2" height="1" fill="#FDDFCB"/>
<rect x="10" y="16" width="2" height="2" fill="#A92525"/>
</svg>
