<svg width="31" height="53" viewBox="0 0 31 53" fill="none" xmlns="http://www.w3.org/2000/svg">
<rect y="9" width="31" height="2" rx="1" fill="black"/>
<path d="M10 21H21V35H10V21Z" fill="#53A925"/>
<path d="M10 35H21V39H10V35Z" fill="#A92525"/>
<path d="M10 39H15V52C15 52.5523 14.5523 53 14 53H11C10.4477 53 10 52.5523 10 52V39Z" fill="#A92525"/>
<path d="M10 46H15V52C15 52.5523 14.5523 53 14 53H11C10.4477 53 10 52.5523 10 52V46Z" fill="#FDDFCB"/>
<path d="M16 39H21V52C21 52.5523 20.5523 53 20 53H17C16.4477 53 16 52.5523 16 52V39Z" fill="#A92525"/>
<path d="M16 46H21V52C21 52.5523 20.5523 53 20 53H17C16.4477 53 16 52.5523 16 52V46Z" fill="#FDDFCB"/>
<path d="M22.7222 14.9999L23.6503 15.3721C24.6755 15.7832 25.1733 16.9476 24.7622 17.9728L22.1567 24.4698C21.9511 24.9824 21.3689 25.2313 20.8563 25.0258L19.9282 24.6536C19.4156 24.448 19.1667 23.8658 19.3723 23.3532L22.7222 14.9999Z" fill="#FDDFCB"/>
<path d="M21.1392 9.40799C21.0623 8.86108 21.4434 8.35541 21.9903 8.27855L22.9805 8.13938C23.5274 8.06252 24.0331 8.44356 24.11 8.99047L25.1731 16.5551C25.3268 17.6489 24.5647 18.6603 23.4709 18.814L22.4807 18.9532L21.1392 9.40799Z" fill="#FDDFCB"/>
<path d="M10.2005 9.37312C10.2706 8.82531 9.88343 8.32434 9.33562 8.25416L8.34372 8.1271C7.79592 8.05693 7.29494 8.44413 7.22477 8.99194L6.25415 16.569C6.1138 17.6646 6.8882 18.6666 7.98381 18.8069V18.8069C8.53162 18.8771 9.0326 18.4899 9.10277 17.9421L10.2005 9.37312Z" fill="#FDDFCB"/>
<path d="M6.66713 17.8861C6.29868 16.8448 6.84415 15.7019 7.88546 15.3335L8.82818 14.9999L11.8303 23.4845C12.0145 24.0051 11.7417 24.5765 11.2211 24.7608L10.2784 25.0943C9.75771 25.2785 9.1863 25.0058 9.00207 24.4852L6.66713 17.8861Z" fill="#FDDFCB"/>
<rect x="10" y="35" width="11" height="2" fill="black"/>
<ellipse cx="20.5" cy="24" rx="1.5" ry="3" fill="#FDE0CB"/>
<ellipse cx="10.5" cy="24" rx="1.5" ry="3" fill="#FDE0CB"/>
<rect x="13" y="19" width="5" height="2" fill="#FDDFCB"/>
<circle cx="15.5" cy="16.5" r="4.5" fill="#DD9907"/>
<rect x="20" y="21.0002" width="2" height="1" fill="#FDDFCB"/>
<rect x="9" y="20.9999" width="2" height="1" fill="#FDDFCB"/>
</svg>
