<svg width="213" height="789" viewBox="0 0 213 789" fill="none" xmlns="http://www.w3.org/2000/svg">
<g clip-path="url(#clip0_2_76)">
<path d="M-0.200928 789C70.933 741.694 142.067 741.694 213.201 789H-0.200928Z" fill="#065F46"/>
<path d="M70.933 789L92.2732 469.682H120.727L142.067 789H70.933Z" fill="#64748B"/>
<path d="M106.5 789V469.682H120.727L142.067 789H106.5Z" fill="#475569"/>
<path d="M117.17 292.283H95.83V469.682H117.17V292.283Z" fill="#94A3B8"/>
<path d="M117.17 292.283H106.5V469.682H117.17V292.283Z" fill="#64748B"/>
<path d="M106.5 295.831C149.715 295.831 184.747 286.301 184.747 274.544C184.747 262.787 149.715 253.256 106.5 253.256C63.2852 253.256 28.2527 262.787 28.2527 274.544C28.2527 286.301 63.2852 295.831 106.5 295.831Z" fill="#1E293B"/>
<path d="M106.5 281.64C145.786 281.64 177.634 273.697 177.634 263.9C177.634 254.102 145.786 246.16 106.5 246.16C67.2137 246.16 35.366 254.102 35.366 263.9C35.366 273.697 67.2137 281.64 106.5 281.64Z" fill="#475569"/>
<path d="M42.4795 263.9C85.1599 278.092 127.84 278.092 170.521 263.9" stroke="#93C5FD" stroke-width="1.5"/>
<path d="M111.835 114.885H101.165V263.9H111.835V114.885Z" fill="#CBD5E1"/>
<path d="M106.5 114.885V8.4455" stroke="#94A3B8"/>
<path d="M106.5 10.2195C109.446 10.2195 111.835 7.83675 111.835 4.89751C111.835 1.95827 109.446 -0.424454 106.5 -0.424454C103.553 -0.424454 101.165 1.95827 101.165 4.89751C101.165 7.83675 103.553 10.2195 106.5 10.2195Z" fill="#EF4444"/>
</g>
<defs>
<clipPath id="clip0_2_76">
<rect width="213" height="789" fill="white"/>
</clipPath>
</defs>
</svg>
